<mxfile host="app.diagrams.net" modified="2023-10-05T16:56:15.115Z" agent="Mozilla/5.0 (Macintosh; Intel Mac OS X 10_15_7) AppleWebKit/537.36 (KHTML, like Gecko) Chrome/117.0.0.0 Safari/537.36" etag="JE0dGR7m-1bAlik0msFo" version="21.5.0" type="github">
  <diagram name="Page-1" id="P2JDlAfyErm9bTpG23yu">
    <mxGraphModel dx="1026" dy="597" grid="1" gridSize="10" guides="1" tooltips="1" connect="1" arrows="1" fold="1" page="1" pageScale="1" pageWidth="827" pageHeight="1169" math="0" shadow="0">
      <root>
        <mxCell id="0" />
        <mxCell id="1" parent="0" />
        <mxCell id="aUhzRwBXuVgVfVh50V0V-8" style="edgeStyle=orthogonalEdgeStyle;rounded=0;orthogonalLoop=1;jettySize=auto;html=1;entryX=0.5;entryY=0;entryDx=0;entryDy=0;" edge="1" parent="1" source="aUhzRwBXuVgVfVh50V0V-1" target="aUhzRwBXuVgVfVh50V0V-2">
          <mxGeometry relative="1" as="geometry" />
        </mxCell>
        <mxCell id="aUhzRwBXuVgVfVh50V0V-16" value="on error" style="edgeStyle=orthogonalEdgeStyle;rounded=0;orthogonalLoop=1;jettySize=auto;html=1;entryX=0;entryY=0.5;entryDx=0;entryDy=0;" edge="1" parent="1" source="aUhzRwBXuVgVfVh50V0V-1" target="aUhzRwBXuVgVfVh50V0V-15">
          <mxGeometry relative="1" as="geometry" />
        </mxCell>
        <mxCell id="aUhzRwBXuVgVfVh50V0V-1" value="Connect to Redact" style="rounded=1;whiteSpace=wrap;html=1;" vertex="1" parent="1">
          <mxGeometry x="160" y="80" width="120" height="40" as="geometry" />
        </mxCell>
        <mxCell id="aUhzRwBXuVgVfVh50V0V-9" style="edgeStyle=orthogonalEdgeStyle;rounded=0;orthogonalLoop=1;jettySize=auto;html=1;entryX=0.5;entryY=0;entryDx=0;entryDy=0;" edge="1" parent="1" source="aUhzRwBXuVgVfVh50V0V-2" target="aUhzRwBXuVgVfVh50V0V-3">
          <mxGeometry relative="1" as="geometry" />
        </mxCell>
        <mxCell id="aUhzRwBXuVgVfVh50V0V-19" value="on error" style="edgeStyle=orthogonalEdgeStyle;rounded=0;orthogonalLoop=1;jettySize=auto;html=1;" edge="1" parent="1" source="aUhzRwBXuVgVfVh50V0V-2" target="aUhzRwBXuVgVfVh50V0V-18">
          <mxGeometry relative="1" as="geometry" />
        </mxCell>
        <mxCell id="aUhzRwBXuVgVfVh50V0V-2" value="Connect to Queue" style="rounded=1;whiteSpace=wrap;html=1;" vertex="1" parent="1">
          <mxGeometry x="160" y="160" width="120" height="40" as="geometry" />
        </mxCell>
        <mxCell id="aUhzRwBXuVgVfVh50V0V-10" style="edgeStyle=orthogonalEdgeStyle;rounded=0;orthogonalLoop=1;jettySize=auto;html=1;entryX=0.5;entryY=0;entryDx=0;entryDy=0;" edge="1" parent="1" source="aUhzRwBXuVgVfVh50V0V-3">
          <mxGeometry relative="1" as="geometry">
            <mxPoint x="220" y="320" as="targetPoint" />
          </mxGeometry>
        </mxCell>
        <mxCell id="aUhzRwBXuVgVfVh50V0V-26" style="edgeStyle=orthogonalEdgeStyle;rounded=0;orthogonalLoop=1;jettySize=auto;html=1;entryX=0.5;entryY=0;entryDx=0;entryDy=0;" edge="1" parent="1" source="aUhzRwBXuVgVfVh50V0V-3" target="aUhzRwBXuVgVfVh50V0V-14">
          <mxGeometry relative="1" as="geometry" />
        </mxCell>
        <mxCell id="aUhzRwBXuVgVfVh50V0V-31" value="on error" style="edgeLabel;html=1;align=center;verticalAlign=middle;resizable=0;points=[];" vertex="1" connectable="0" parent="aUhzRwBXuVgVfVh50V0V-26">
          <mxGeometry x="-0.787" y="-1" relative="1" as="geometry">
            <mxPoint as="offset" />
          </mxGeometry>
        </mxCell>
        <mxCell id="aUhzRwBXuVgVfVh50V0V-3" value="Open Channel" style="rounded=1;whiteSpace=wrap;html=1;" vertex="1" parent="1">
          <mxGeometry x="160" y="240" width="120" height="40" as="geometry" />
        </mxCell>
        <mxCell id="aUhzRwBXuVgVfVh50V0V-11" style="edgeStyle=orthogonalEdgeStyle;rounded=0;orthogonalLoop=1;jettySize=auto;html=1;entryX=0.5;entryY=0;entryDx=0;entryDy=0;" edge="1" parent="1" target="aUhzRwBXuVgVfVh50V0V-7">
          <mxGeometry relative="1" as="geometry">
            <mxPoint x="220" y="360" as="sourcePoint" />
          </mxGeometry>
        </mxCell>
        <mxCell id="aUhzRwBXuVgVfVh50V0V-13" style="edgeStyle=orthogonalEdgeStyle;rounded=0;orthogonalLoop=1;jettySize=auto;html=1;entryX=0.5;entryY=0;entryDx=0;entryDy=0;" edge="1" parent="1" source="aUhzRwBXuVgVfVh50V0V-5" target="aUhzRwBXuVgVfVh50V0V-6">
          <mxGeometry relative="1" as="geometry" />
        </mxCell>
        <mxCell id="aUhzRwBXuVgVfVh50V0V-29" style="edgeStyle=orthogonalEdgeStyle;rounded=0;orthogonalLoop=1;jettySize=auto;html=1;" edge="1" parent="1" source="aUhzRwBXuVgVfVh50V0V-5" target="aUhzRwBXuVgVfVh50V0V-14">
          <mxGeometry relative="1" as="geometry" />
        </mxCell>
        <mxCell id="aUhzRwBXuVgVfVh50V0V-33" value="on error" style="edgeLabel;html=1;align=center;verticalAlign=middle;resizable=0;points=[];" vertex="1" connectable="0" parent="aUhzRwBXuVgVfVh50V0V-29">
          <mxGeometry x="-0.6533" relative="1" as="geometry">
            <mxPoint as="offset" />
          </mxGeometry>
        </mxCell>
        <mxCell id="aUhzRwBXuVgVfVh50V0V-5" value="Close Channel" style="rounded=1;whiteSpace=wrap;html=1;" vertex="1" parent="1">
          <mxGeometry x="160" y="400" width="120" height="40" as="geometry" />
        </mxCell>
        <mxCell id="aUhzRwBXuVgVfVh50V0V-30" style="edgeStyle=orthogonalEdgeStyle;rounded=0;orthogonalLoop=1;jettySize=auto;html=1;" edge="1" parent="1" source="aUhzRwBXuVgVfVh50V0V-6" target="aUhzRwBXuVgVfVh50V0V-14">
          <mxGeometry relative="1" as="geometry" />
        </mxCell>
        <mxCell id="aUhzRwBXuVgVfVh50V0V-34" value="on error" style="edgeLabel;html=1;align=center;verticalAlign=middle;resizable=0;points=[];" vertex="1" connectable="0" parent="aUhzRwBXuVgVfVh50V0V-30">
          <mxGeometry x="-0.4759" y="-1" relative="1" as="geometry">
            <mxPoint as="offset" />
          </mxGeometry>
        </mxCell>
        <mxCell id="aUhzRwBXuVgVfVh50V0V-6" value="Close Connection" style="rounded=1;whiteSpace=wrap;html=1;" vertex="1" parent="1">
          <mxGeometry x="160" y="480" width="120" height="40" as="geometry" />
        </mxCell>
        <mxCell id="aUhzRwBXuVgVfVh50V0V-12" style="edgeStyle=orthogonalEdgeStyle;rounded=0;orthogonalLoop=1;jettySize=auto;html=1;entryX=0.5;entryY=0;entryDx=0;entryDy=0;" edge="1" parent="1" target="aUhzRwBXuVgVfVh50V0V-5">
          <mxGeometry relative="1" as="geometry">
            <mxPoint x="220" y="360" as="sourcePoint" />
          </mxGeometry>
        </mxCell>
        <mxCell id="aUhzRwBXuVgVfVh50V0V-14" value="Exit" style="rhombus;whiteSpace=wrap;html=1;" vertex="1" parent="1">
          <mxGeometry x="340" y="545" width="80" height="80" as="geometry" />
        </mxCell>
        <mxCell id="aUhzRwBXuVgVfVh50V0V-17" style="edgeStyle=orthogonalEdgeStyle;rounded=0;orthogonalLoop=1;jettySize=auto;html=1;entryX=0.5;entryY=0;entryDx=0;entryDy=0;" edge="1" parent="1" source="aUhzRwBXuVgVfVh50V0V-15" target="aUhzRwBXuVgVfVh50V0V-1">
          <mxGeometry relative="1" as="geometry">
            <Array as="points">
              <mxPoint x="440" y="100" />
              <mxPoint x="440" y="60" />
              <mxPoint x="220" y="60" />
            </Array>
          </mxGeometry>
        </mxCell>
        <mxCell id="aUhzRwBXuVgVfVh50V0V-15" value="retry" style="triangle;whiteSpace=wrap;html=1;" vertex="1" parent="1">
          <mxGeometry x="360" y="80" width="60" height="40" as="geometry" />
        </mxCell>
        <mxCell id="aUhzRwBXuVgVfVh50V0V-20" style="edgeStyle=orthogonalEdgeStyle;rounded=0;orthogonalLoop=1;jettySize=auto;html=1;entryX=0.5;entryY=0;entryDx=0;entryDy=0;" edge="1" parent="1" source="aUhzRwBXuVgVfVh50V0V-18" target="aUhzRwBXuVgVfVh50V0V-2">
          <mxGeometry relative="1" as="geometry">
            <Array as="points">
              <mxPoint x="440" y="180" />
              <mxPoint x="440" y="140" />
              <mxPoint x="220" y="140" />
            </Array>
          </mxGeometry>
        </mxCell>
        <mxCell id="aUhzRwBXuVgVfVh50V0V-18" value="retry" style="triangle;whiteSpace=wrap;html=1;" vertex="1" parent="1">
          <mxGeometry x="360" y="160" width="60" height="40" as="geometry" />
        </mxCell>
        <mxCell id="aUhzRwBXuVgVfVh50V0V-23" value="Read Message from Queue" style="rounded=1;whiteSpace=wrap;html=1;" vertex="1" parent="1">
          <mxGeometry x="560" y="320" width="120" height="40" as="geometry" />
        </mxCell>
        <mxCell id="aUhzRwBXuVgVfVh50V0V-24" value="Process Task" style="rounded=1;whiteSpace=wrap;html=1;" vertex="1" parent="1">
          <mxGeometry x="560" y="400" width="120" height="40" as="geometry" />
        </mxCell>
        <mxCell id="aUhzRwBXuVgVfVh50V0V-28" style="edgeStyle=orthogonalEdgeStyle;rounded=0;orthogonalLoop=1;jettySize=auto;html=1;" edge="1" parent="1" source="aUhzRwBXuVgVfVh50V0V-25" target="aUhzRwBXuVgVfVh50V0V-14">
          <mxGeometry relative="1" as="geometry" />
        </mxCell>
        <mxCell id="aUhzRwBXuVgVfVh50V0V-32" value="on error" style="edgeLabel;html=1;align=center;verticalAlign=middle;resizable=0;points=[];" vertex="1" connectable="0" parent="aUhzRwBXuVgVfVh50V0V-28">
          <mxGeometry x="-0.7639" relative="1" as="geometry">
            <mxPoint as="offset" />
          </mxGeometry>
        </mxCell>
        <mxCell id="aUhzRwBXuVgVfVh50V0V-25" value="Process Task" style="rounded=1;whiteSpace=wrap;html=1;" vertex="1" parent="1">
          <mxGeometry x="160" y="320" width="120" height="40" as="geometry" />
        </mxCell>
      </root>
    </mxGraphModel>
  </diagram>
</mxfile>
